<svg width="293" height="233" viewBox="0 0 293 233" fill="none" xmlns="http://www.w3.org/2000/svg">
<path d="M247.908 161.777C247.908 163.472 247.405 165.129 246.464 166.538C245.522 167.948 244.184 169.046 242.618 169.695C241.052 170.343 239.329 170.513 237.666 170.182C236.004 169.852 234.477 169.035 233.278 167.837C232.08 166.638 231.263 165.111 230.933 163.449C230.602 161.787 230.772 160.063 231.42 158.497C232.069 156.931 233.168 155.593 234.577 154.651C235.986 153.71 237.643 153.207 239.338 153.207C241.611 153.207 243.791 154.11 245.398 155.717C247.005 157.324 247.908 159.504 247.908 161.777Z" fill="url(#paint0_radial_59_2224)"/>
<path d="M37.7377 189.927C37.7377 190.829 37.4702 191.711 36.9692 192.46C36.4681 193.21 35.7559 193.795 34.9227 194.14C34.0895 194.485 33.1726 194.575 32.2881 194.399C31.4035 194.223 30.591 193.789 29.9533 193.151C29.3155 192.514 28.8812 191.701 28.7053 190.817C28.5293 189.932 28.6197 189.015 28.9648 188.182C29.3099 187.349 29.8944 186.637 30.6443 186.136C31.3942 185.634 32.2758 185.367 33.1777 185.367C34.3871 185.367 35.5469 185.847 36.4021 186.703C37.2573 187.558 37.7377 188.718 37.7377 189.927Z" fill="url(#paint1_radial_59_2224)"/>
<path d="M115.448 216.067C116.71 216.067 117.943 216.441 118.992 217.142C120.042 217.843 120.859 218.84 121.342 220.005C121.825 221.171 121.951 222.454 121.705 223.692C121.459 224.929 120.851 226.066 119.959 226.958C119.067 227.851 117.93 228.458 116.693 228.704C115.455 228.951 114.172 228.824 113.006 228.341C111.841 227.858 110.844 227.041 110.143 225.992C109.442 224.942 109.068 223.709 109.068 222.447C109.068 220.755 109.74 219.132 110.937 217.936C112.133 216.739 113.756 216.067 115.448 216.067Z" fill="url(#paint2_radial_59_2224)"/>
<path d="M21.9176 90.6571C21.9176 91.1377 21.7751 91.6075 21.5081 92.0071C21.2411 92.4067 20.8616 92.7182 20.4175 92.9021C19.9735 93.086 19.4849 93.1341 19.0135 93.0404C18.5422 92.9466 18.1092 92.7152 17.7693 92.3753C17.4295 92.0355 17.1981 91.6025 17.1043 91.1311C17.0105 90.6597 17.0587 90.1712 17.2426 89.7271C17.4265 89.2831 17.738 88.9036 18.1376 88.6366C18.5372 88.3696 19.007 88.2271 19.4876 88.2271C20.1321 88.2271 20.7502 88.4831 21.2059 88.9388C21.6616 89.3945 21.9176 90.0126 21.9176 90.6571Z" fill="url(#paint3_radial_59_2224)"/>
<g style="mix-blend-mode:overlay">
<path d="M216.248 179.507C234.538 189.827 252.718 200.367 270.248 211.907C274.618 214.827 278.938 217.827 283.108 221.037C285.205 222.633 287.208 224.349 289.108 226.177C290.107 227.1 290.978 228.153 291.698 229.307C291.883 229.642 292.018 230.003 292.098 230.377C292.153 230.602 292.16 230.837 292.117 231.064C292.074 231.292 291.982 231.508 291.848 231.697C291.568 231.982 291.23 232.204 290.858 232.349C290.486 232.494 290.087 232.558 289.688 232.537C287.008 232.455 284.351 232.015 281.788 231.227C279.238 230.537 276.728 229.737 274.228 228.897C269.228 227.197 264.328 225.337 259.448 223.397C239.928 215.587 220.818 206.827 201.838 197.827C182.858 188.827 164.068 179.427 145.388 169.827C126.708 160.227 108.268 150.147 89.9476 139.827C71.6276 129.507 53.5876 118.997 35.7676 107.787C26.9076 102.147 18.0776 96.417 9.76765 89.987C7.67645 88.376 5.67355 86.6535 3.76765 84.827C2.77449 83.8972 1.90714 82.8416 1.18765 81.687C0.999286 81.3761 0.857765 81.0392 0.767647 80.687C0.708228 80.4684 0.695325 80.2397 0.729775 80.0158C0.764225 79.7919 0.84526 79.5777 0.967646 79.387C1.23437 79.0899 1.5639 78.8559 1.93232 78.7019C2.30074 78.548 2.69881 78.478 3.09765 78.497C5.77539 78.5766 8.42981 79.0207 10.9876 79.817C13.5276 80.517 15.9876 81.327 18.5276 82.187C28.4476 85.677 38.1376 89.767 47.7576 93.967C57.3776 98.167 66.9176 102.567 76.4076 107.067C66.8143 102.68 57.2076 98.4303 47.5876 94.317C37.9076 90.257 28.1776 86.317 18.2476 82.957C15.7576 82.127 13.2476 81.327 10.7476 80.657C8.28187 79.8999 5.72585 79.4761 3.14765 79.397C2.63338 79.3695 2.12832 79.5414 1.73765 79.877C1.51765 80.117 1.73765 80.727 2.00765 81.227C2.69131 82.2959 3.50783 83.2737 4.43765 84.137C6.34242 85.9335 8.34551 87.6227 10.4376 89.197C18.7576 95.547 27.5976 101.197 36.4376 106.817C54.2376 117.927 72.4376 128.387 90.7876 138.587C109.138 148.787 127.678 158.587 146.328 168.267C164.978 177.947 183.588 187.427 202.588 196.537C221.588 205.647 240.588 214.457 259.998 222.337C264.868 224.287 269.758 226.177 274.708 227.877C277.178 228.727 279.708 229.527 282.188 230.227C284.647 230.99 287.195 231.433 289.768 231.547C290.348 231.547 291.008 231.377 291.188 231.097C291.368 230.817 291.238 230.297 290.968 229.777C290.294 228.706 289.484 227.728 288.558 226.867C286.683 225.056 284.706 223.353 282.638 221.767C278.508 218.557 274.198 215.557 269.868 212.607C252.438 200.847 234.398 190.067 216.248 179.507Z" fill="white"/>
</g>
<g style="mix-blend-mode:overlay">
<path d="M76.5878 179.507C58.2978 189.827 40.1178 200.367 22.5878 211.907C18.2178 214.827 13.8978 217.827 9.72781 221.037C7.63037 222.633 5.62702 224.349 3.72781 226.177C2.72884 227.1 1.85778 228.153 1.13781 229.307C0.952552 229.642 0.817766 230.003 0.737813 230.377C0.681973 230.602 0.675403 230.837 0.718551 231.064C0.761699 231.292 0.853547 231.508 0.987813 231.697C1.2678 231.982 1.60515 232.204 1.97753 232.349C2.34991 232.494 2.74882 232.558 3.14781 232.537C5.82786 232.455 8.48485 232.015 11.0478 231.227C13.5978 230.537 16.1078 229.737 18.6078 228.897C23.6078 227.197 28.5078 225.337 33.3878 223.397C52.9178 215.587 72.0178 206.827 90.9978 197.827C109.978 188.827 128.778 179.427 147.448 169.827C166.118 160.227 184.568 150.147 202.888 139.827C221.208 129.507 239.378 118.987 257.148 107.767C266.018 102.127 274.838 96.3971 283.148 89.9671C285.239 88.356 287.242 86.6335 289.148 84.8071C290.141 83.8773 291.008 82.8217 291.728 81.6671C291.92 81.3582 292.062 81.0206 292.148 80.6671C292.207 80.4484 292.22 80.2198 292.186 79.9958C292.151 79.7719 292.07 79.5577 291.948 79.3671C291.681 79.0699 291.352 78.8359 290.983 78.682C290.615 78.528 290.217 78.458 289.818 78.4771C287.14 78.5566 284.486 79.0007 281.928 79.7971C279.388 80.4971 276.878 81.3071 274.388 82.1671C264.468 85.6571 254.778 89.7471 245.158 93.9471C235.538 98.1471 225.998 102.547 216.508 107.047C226.061 102.68 235.664 98.4404 245.318 94.3271C254.998 90.2671 264.728 86.3271 274.668 82.9671C277.148 82.1371 279.668 81.3371 282.158 80.6671C284.624 79.9099 287.18 79.4861 289.758 79.4071C290.272 79.3796 290.777 79.5515 291.168 79.8871C291.388 80.1271 291.168 80.7371 290.898 81.2371C290.214 82.3059 289.398 83.2837 288.468 84.1471C286.563 85.9435 284.56 87.6328 282.468 89.2071C274.148 95.5571 265.308 101.207 256.468 106.827C238.668 117.937 220.468 128.397 202.118 138.597C183.768 148.797 165.238 158.597 146.578 168.277C127.918 177.957 109.228 187.437 90.3078 196.547C71.3878 205.657 52.3078 214.467 32.8978 222.347C28.0278 224.297 23.1378 226.187 18.1878 227.887C15.7178 228.737 13.1878 229.537 10.7078 230.237C8.24804 231 5.70056 231.443 3.12781 231.557C2.54781 231.557 1.88781 231.387 1.70781 231.107C1.52781 230.827 1.70781 230.307 1.92781 229.787C2.60134 228.716 3.4115 227.738 4.33781 226.877C6.21414 225.064 8.19413 223.361 10.2678 221.777C14.3978 218.567 18.6978 215.567 23.0278 212.617C40.4378 200.847 58.4778 190.067 76.5878 179.507Z" fill="white"/>
</g>
<path d="M175.988 0.0770264H76.588C72.7132 0.0770264 68.9971 1.61629 66.2572 4.3562C63.5173 7.0961 61.978 10.8122 61.978 14.687C61.978 18.5618 63.5173 22.2779 66.2572 25.0179C68.9971 27.7578 72.7132 29.297 76.588 29.297H119.218L126.278 36.367L133.338 29.297H175.988C179.863 29.297 183.579 27.7578 186.319 25.0179C189.059 22.2779 190.598 18.5618 190.598 14.687C190.598 10.8122 189.059 7.0961 186.319 4.3562C183.579 1.61629 179.863 0.0770264 175.988 0.0770264Z" fill="url(#paint4_linear_59_2224)"/>
<path d="M158.988 19.347H93.588C93.3731 19.347 93.1604 19.3045 92.9619 19.222C92.7635 19.1395 92.5834 19.0185 92.4319 18.8661C92.2804 18.7137 92.1606 18.5328 92.0792 18.3339C91.9979 18.135 91.9567 17.9219 91.958 17.707C91.958 17.2747 92.1298 16.8601 92.4355 16.5544C92.7411 16.2488 93.1557 16.077 93.588 16.077H158.988C159.415 16.0849 159.822 16.2601 160.121 16.5649C160.42 16.8698 160.588 17.2799 160.588 17.707C160.591 18.1359 160.424 18.5486 160.125 18.8556C159.825 19.1626 159.417 19.3391 158.988 19.347Z" fill="white"/>
<path d="M158.988 12.077H93.588C93.1548 12.0744 92.7402 11.9004 92.4348 11.5931C92.1294 11.2859 91.958 10.8702 91.958 10.437C91.958 10.0047 92.1297 9.59011 92.4354 9.28442C92.7411 8.97874 93.1557 8.80701 93.588 8.80701H158.988C159.415 8.81487 159.822 8.99006 160.121 9.2949C160.42 9.59974 160.588 10.0099 160.588 10.437C160.588 10.8651 160.421 11.2763 160.122 11.5827C159.823 11.8892 159.416 12.0666 158.988 12.077Z" fill="white"/>
<path d="M219.298 29.317C220.56 29.317 221.793 29.6912 222.842 30.3922C223.892 31.0933 224.709 32.0897 225.192 33.2555C225.675 34.4213 225.802 35.7041 225.555 36.9417C225.309 38.1793 224.702 39.3161 223.809 40.2084C222.917 41.1006 221.78 41.7083 220.543 41.9544C219.305 42.2006 218.022 42.0743 216.856 41.5914C215.691 41.1085 214.694 40.2907 213.993 39.2416C213.292 38.1924 212.918 36.9589 212.918 35.697C212.918 34.0049 213.59 32.3822 214.787 31.1857C215.983 29.9892 217.606 29.317 219.298 29.317Z" fill="url(#paint5_radial_59_2224)"/>
<path d="M207.778 103.997C207.958 100.597 208.048 96.997 208.048 93.267C208.048 72.437 205.188 55.557 201.658 55.557C198.128 55.557 195.268 72.437 195.268 93.267C195.268 96.997 195.358 100.597 195.528 103.997H207.778Z" fill="url(#paint6_linear_59_2224)"/>
<path d="M201.948 68.527C207.078 68.527 211.238 64.3677 211.238 59.237C211.238 54.1063 207.078 49.947 201.948 49.947C196.817 49.947 192.658 54.1063 192.658 59.237C192.658 64.3677 196.817 68.527 201.948 68.527Z" fill="url(#paint7_linear_59_2224)"/>
<path d="M55.3179 103.997C55.4879 100.597 55.5779 96.997 55.5779 93.267C55.5779 72.437 52.7179 55.557 49.1879 55.557C45.6579 55.557 42.7979 72.437 42.7979 93.267C42.7979 96.997 42.8879 100.597 43.0679 103.997H55.3179Z" fill="url(#paint8_linear_59_2224)"/>
<path d="M49.478 68.527C54.6087 68.527 58.768 64.3677 58.768 59.237C58.768 54.1063 54.6087 49.947 49.478 49.947C44.3473 49.947 40.188 54.1063 40.188 59.237C40.188 64.3677 44.3473 68.527 49.478 68.527Z" fill="url(#paint9_linear_59_2224)"/>
<path d="M214.068 102.797H205.808C202.555 102.797 199.918 105.434 199.918 108.687V139.617C199.918 142.87 202.555 145.507 205.808 145.507H214.068C217.321 145.507 219.958 142.87 219.958 139.617V108.687C219.958 105.434 217.321 102.797 214.068 102.797Z" fill="url(#paint10_linear_59_2224)"/>
<path d="M215.328 119.057H204.548C201.991 119.057 199.918 121.13 199.918 123.687V140.867C199.918 143.424 201.991 145.497 204.548 145.497H215.328C217.885 145.497 219.958 143.424 219.958 140.867V123.687C219.958 121.13 217.885 119.057 215.328 119.057Z" fill="url(#paint11_linear_59_2224)"/>
<path d="M45.2979 102.797H37.0379C33.785 102.797 31.1479 105.434 31.1479 108.687V139.617C31.1479 142.87 33.785 145.507 37.0379 145.507H45.2979C48.5509 145.507 51.1879 142.87 51.1879 139.617V108.687C51.1879 105.434 48.5509 102.797 45.2979 102.797Z" fill="url(#paint12_linear_59_2224)"/>
<path d="M46.5579 119.057H35.7779C33.2209 119.057 31.1479 121.13 31.1479 123.687V140.867C31.1479 143.424 33.2209 145.497 35.7779 145.497H46.5579C49.115 145.497 51.1879 143.424 51.1879 140.867V123.687C51.1879 121.13 49.115 119.057 46.5579 119.057Z" fill="url(#paint13_linear_59_2224)"/>
<path d="M126.408 190.317C173.485 190.317 211.648 159.725 211.648 121.987C211.648 84.2494 173.485 53.657 126.408 53.657C79.3312 53.657 41.168 84.2494 41.168 121.987C41.168 159.725 79.3312 190.317 126.408 190.317Z" fill="url(#paint14_linear_59_2224)"/>
<path d="M126.408 171.817C164.78 171.817 195.888 148.169 195.888 118.997C195.888 89.8253 164.78 66.177 126.408 66.177C88.035 66.177 56.9277 89.8253 56.9277 118.997C56.9277 148.169 88.035 171.817 126.408 171.817Z" fill="url(#paint15_linear_59_2224)"/>
<path d="M126.408 166.867C162.776 166.867 192.258 145.005 192.258 118.037C192.258 91.069 162.776 69.207 126.408 69.207C90.0397 69.207 60.5576 91.069 60.5576 118.037C60.5576 145.005 90.0397 166.867 126.408 166.867Z" fill="url(#paint16_linear_59_2224)"/>
<path d="M165.938 127.187H89.2677C86.726 127.187 84.2883 126.178 82.4901 124.382C80.6919 122.585 79.6804 120.149 79.6777 117.607C79.6804 115.065 80.6919 112.629 82.4901 110.832C84.2883 109.036 86.726 108.027 89.2677 108.027H165.938C168.479 108.027 170.915 109.036 172.712 110.833C174.508 112.63 175.518 115.066 175.518 117.607C175.518 118.865 175.27 120.111 174.788 121.273C174.307 122.435 173.601 123.492 172.712 124.381C171.822 125.271 170.766 125.976 169.604 126.458C168.442 126.939 167.196 127.187 165.938 127.187Z" fill="#8EE9FE"/>
<path d="M140.328 136.827H116.038C115.483 136.827 114.952 136.607 114.56 136.215C114.168 135.823 113.948 135.291 113.948 134.737C113.95 134.184 114.172 133.655 114.563 133.266C114.955 132.876 115.485 132.657 116.038 132.657H140.328C140.879 132.657 141.408 132.876 141.799 133.266C142.189 133.656 142.408 134.185 142.408 134.737C142.409 135.011 142.356 135.283 142.252 135.536C142.148 135.79 141.995 136.02 141.802 136.214C141.609 136.409 141.379 136.563 141.126 136.668C140.873 136.773 140.602 136.827 140.328 136.827Z" fill="#8EE9FE"/>
<path style="mix-blend-mode:overlay" opacity="0.36" d="M126.408 69.207C120.492 69.2035 114.592 69.8032 108.798 70.997C108.368 74.0315 108.151 77.0923 108.148 80.1571C108.136 89.4108 110.101 98.5603 113.912 106.993C117.723 115.425 123.292 122.946 130.245 129.052C137.199 135.157 145.377 139.706 154.232 142.394C163.087 145.082 172.414 145.847 181.588 144.637C188.318 136.977 192.238 127.847 192.238 118.037C192.258 91.067 162.778 69.207 126.408 69.207Z" fill="url(#paint17_linear_59_2224)"/>
<defs>
<radialGradient id="paint0_radial_59_2224" cx="0" cy="0" r="1" gradientUnits="userSpaceOnUse" gradientTransform="translate(241.188 158.587) scale(10.33 10.33)">
<stop stop-color="#F3D042"/>
<stop offset="1" stop-color="#DB2385"/>
</radialGradient>
<radialGradient id="paint1_radial_59_2224" cx="0" cy="0" r="1" gradientUnits="userSpaceOnUse" gradientTransform="translate(34.1577 188.227) scale(5.49 5.49)">
<stop stop-color="#F3D042"/>
<stop offset="1" stop-color="#DB2385"/>
</radialGradient>
<radialGradient id="paint2_radial_59_2224" cx="0" cy="0" r="1" gradientUnits="userSpaceOnUse" gradientTransform="translate(113.398 221.077) rotate(-90) scale(6.38 6.38)">
<stop stop-color="white"/>
<stop offset="1" stop-color="#5EA5FC"/>
</radialGradient>
<radialGradient id="paint3_radial_59_2224" cx="0" cy="0" r="1" gradientUnits="userSpaceOnUse" gradientTransform="translate(20.0176 89.877) scale(2.43 2.43)">
<stop stop-color="white"/>
<stop offset="1" stop-color="#5EA5FC"/>
</radialGradient>
<linearGradient id="paint4_linear_59_2224" x1="77.958" y1="80.287" x2="179.988" y2="-58.183" gradientUnits="userSpaceOnUse">
<stop stop-color="#DB2385"/>
<stop offset="1" stop-color="#F3D042"/>
</linearGradient>
<radialGradient id="paint5_radial_59_2224" cx="0" cy="0" r="1" gradientUnits="userSpaceOnUse" gradientTransform="translate(217.248 34.327) rotate(-90) scale(6.38 6.38)">
<stop stop-color="white"/>
<stop offset="1" stop-color="#5EA5FC"/>
</radialGradient>
<linearGradient id="paint6_linear_59_2224" x1="205.278" y1="59.787" x2="199.478" y2="110.907" gradientUnits="userSpaceOnUse">
<stop stop-color="white"/>
<stop offset="1" stop-color="#5EA5FC"/>
</linearGradient>
<linearGradient id="paint7_linear_59_2224" x1="195.288" y1="74.007" x2="209.228" y2="43.077" gradientUnits="userSpaceOnUse">
<stop stop-color="#DB2385"/>
<stop offset="1" stop-color="#F3D042"/>
</linearGradient>
<linearGradient id="paint8_linear_59_2224" x1="52.8179" y1="59.787" x2="47.0078" y2="110.907" gradientUnits="userSpaceOnUse">
<stop stop-color="white"/>
<stop offset="1" stop-color="#5EA5FC"/>
</linearGradient>
<linearGradient id="paint9_linear_59_2224" x1="42.818" y1="74.007" x2="56.758" y2="43.077" gradientUnits="userSpaceOnUse">
<stop stop-color="#DB2385"/>
<stop offset="1" stop-color="#F3D042"/>
</linearGradient>
<linearGradient id="paint10_linear_59_2224" x1="214.618" y1="96.857" x2="204.158" y2="157.837" gradientUnits="userSpaceOnUse">
<stop stop-color="white"/>
<stop offset="1" stop-color="#5EA5FC"/>
</linearGradient>
<linearGradient id="paint11_linear_59_2224" x1="222.508" y1="87.137" x2="205.518" y2="148.127" gradientUnits="userSpaceOnUse">
<stop stop-color="white"/>
<stop offset="1" stop-color="#5EA5FC"/>
</linearGradient>
<linearGradient id="paint12_linear_59_2224" x1="45.8479" y1="96.857" x2="35.3879" y2="157.837" gradientUnits="userSpaceOnUse">
<stop stop-color="white"/>
<stop offset="1" stop-color="#5EA5FC"/>
</linearGradient>
<linearGradient id="paint13_linear_59_2224" x1="53.7379" y1="87.137" x2="36.7479" y2="148.127" gradientUnits="userSpaceOnUse">
<stop stop-color="white"/>
<stop offset="1" stop-color="#5EA5FC"/>
</linearGradient>
<linearGradient id="paint14_linear_59_2224" x1="142.348" y1="71.237" x2="53.948" y2="352.667" gradientUnits="userSpaceOnUse">
<stop stop-color="white"/>
<stop offset="1" stop-color="#5EA5FC"/>
</linearGradient>
<linearGradient id="paint15_linear_59_2224" x1="126.408" y1="123.537" x2="126.408" y2="176.757" gradientUnits="userSpaceOnUse">
<stop stop-color="white"/>
<stop offset="1" stop-color="#5EA5FC"/>
</linearGradient>
<linearGradient id="paint16_linear_59_2224" x1="174.168" y1="43.657" x2="64.1176" y2="215.037" gradientUnits="userSpaceOnUse">
<stop stop-color="#1F378F"/>
<stop offset="1" stop-color="#131941"/>
</linearGradient>
<linearGradient id="paint17_linear_59_2224" x1="153.008" y1="84.087" x2="132.098" y2="187.477" gradientUnits="userSpaceOnUse">
<stop stop-color="white"/>
<stop offset="1" stop-color="#5EA5FC"/>
</linearGradient>
</defs>
</svg>
